#define close_width 18
#define close_height 18
static unsigned char close_bits[] = {
   0x00, 0x00, 0x00, 0x00, 0x00, 0x00, 0x00, 0x00, 0x00, 0x18, 0x60, 0x00,
   0x38, 0x70, 0x00, 0x70, 0x38, 0x00, 0xe0, 0x1c, 0x00, 0xc0, 0x0f, 0x00,
   0x80, 0x07, 0x00, 0x80, 0x07, 0x00, 0xc0, 0x0f, 0x00, 0xe0, 0x1c, 0x00,
   0x70, 0x38, 0x00, 0x38, 0x70, 0x00, 0x18, 0x60, 0x00, 0x00, 0x00, 0x00,
   0x00, 0x00, 0x00, 0x00, 0x00, 0x00 };
